TITLE ""
FILE "1Q_t_0079-0087.mp3" MP3
  TRACK 01 AUDIO
    TITLE "1Q_t_0079-0087_01"
    INDEX 01 00:00:00
  TRACK 02 AUDIO
    TITLE "1Q_t_0079-0087_02"
    INDEX 01 00:01:33
  TRACK 03 AUDIO
    TITLE "1Q_t_0079-0087_03"
    INDEX 01 00:01:51
  TRACK 04 AUDIO
    TITLE "1Q_t_0079-0087_04"
    INDEX 01 00:04:63
  TRACK 05 AUDIO
    TITLE "1Q_t_0079-0087_05"
    INDEX 01 00:05:02
  TRACK 06 AUDIO
    TITLE "1Q_t_0079-0087_06"
    INDEX 01 00:12:47
  TRACK 07 AUDIO
    TITLE "1Q_t_0079-0087_07"
    INDEX 01 00:13:23
  TRACK 08 AUDIO
    TITLE "1Q_t_0079-0087_08"
    INDEX 01 00:14:34
  TRACK 09 AUDIO
    TITLE "1Q_t_0079-0087_09"
    INDEX 01 00:14:50
  TRACK 10 AUDIO
    TITLE "1Q_t_0079-0087_10"
    INDEX 01 00:15:57
  TRACK 11 AUDIO
    TITLE "1Q_t_0079-0087_11"
    INDEX 01 00:15:71
  TRACK 12 AUDIO
    TITLE "1Q_t_0079-0087_12"
    INDEX 01 00:22:10
  TRACK 13 AUDIO
    TITLE "1Q_t_0079-0087_13"
    INDEX 01 00:22:65
  TRACK 14 AUDIO
    TITLE "1Q_t_0079-0087_14"
    INDEX 01 00:23:64
  TRACK 15 AUDIO
    TITLE "1Q_t_0079-0087_15"
    INDEX 01 00:24:05
  TRACK 16 AUDIO
    TITLE "1Q_t_0079-0087_16"
    INDEX 01 00:27:25
  TRACK 17 AUDIO
    TITLE "1Q_t_0079-0087_17"
    INDEX 01 00:27:40
  TRACK 18 AUDIO
    TITLE "1Q_t_0079-0087_18"
    INDEX 01 00:32:44
  TRACK 19 AUDIO
    TITLE "1Q_t_0079-0087_19"
    INDEX 01 00:33:22
  TRACK 20 AUDIO
    TITLE "1Q_t_0079-0087_20"
    INDEX 01 00:34:46
  TRACK 21 AUDIO
    TITLE "1Q_t_0079-0087_21"
    INDEX 01 00:34:62
  TRACK 22 AUDIO
    TITLE "1Q_t_0079-0087_22"
    INDEX 01 00:38:30
  TRACK 23 AUDIO
    TITLE "1Q_t_0079-0087_23"
    INDEX 01 00:38:42
  TRACK 24 AUDIO
    TITLE "1Q_t_0079-0087_24"
    INDEX 01 00:44:00
  TRACK 25 AUDIO
    TITLE "1Q_t_0079-0087_25"
    INDEX 01 00:44:51
  TRACK 26 AUDIO
    TITLE "1Q_t_0079-0087_26"
    INDEX 01 00:45:68
  TRACK 27 AUDIO
    TITLE "1Q_t_0079-0087_27"
    INDEX 01 00:46:10
  TRACK 28 AUDIO
    TITLE "1Q_t_0079-0087_28"
    INDEX 01 00:47:31
  TRACK 29 AUDIO
    TITLE "1Q_t_0079-0087_29"
    INDEX 01 00:47:47
  TRACK 30 AUDIO
    TITLE "1Q_t_0079-0087_30"
    INDEX 01 00:51:70
  TRACK 31 AUDIO
    TITLE "1Q_t_0079-0087_31"
    INDEX 01 00:52:50
  TRACK 32 AUDIO
    TITLE "1Q_t_0079-0087_32"
    INDEX 01 00:53:69
  TRACK 33 AUDIO
    TITLE "1Q_t_0079-0087_33"
    INDEX 01 00:54:47
  TRACK 34 AUDIO
    TITLE "1Q_t_0079-0087_34"
    INDEX 01 00:55:54
  TRACK 35 AUDIO
    TITLE "1Q_t_0079-0087_35"
    INDEX 01 00:55:70
  TRACK 36 AUDIO
    TITLE "1Q_t_0079-0087_36"
    INDEX 01 00:57:32
  TRACK 37 AUDIO
    TITLE "1Q_t_0079-0087_37"
    INDEX 01 00:57:49
  TRACK 38 AUDIO
    TITLE "1Q_t_0079-0087_38"
    INDEX 01 01:02:56
  TRACK 39 AUDIO
    TITLE "1Q_t_0079-0087_39"
    INDEX 01 01:03:34
  TRACK 40 AUDIO
    TITLE "1Q_t_0079-0087_40"
    INDEX 01 01:04:63
  TRACK 41 AUDIO
    TITLE "1Q_t_0079-0087_41"
    INDEX 01 01:05:02
  TRACK 42 AUDIO
    TITLE "1Q_t_0079-0087_42"
    INDEX 01 01:08:59
  TRACK 43 AUDIO
    TITLE "1Q_t_0079-0087_43"
    INDEX 01 01:09:00
  TRACK 44 AUDIO
    TITLE "1Q_t_0079-0087_44"
    INDEX 01 01:14:17
  TRACK 45 AUDIO
    TITLE "1Q_t_0079-0087_45"
    INDEX 01 01:14:69
  TRACK 46 AUDIO
    TITLE "1Q_t_0079-0087_46"
    INDEX 01 01:16:15
  TRACK 47 AUDIO
    TITLE "1Q_t_0079-0087_47"
    INDEX 01 01:16:29
  TRACK 48 AUDIO
    TITLE "1Q_t_0079-0087_48"
    INDEX 01 01:17:38
  TRACK 49 AUDIO
    TITLE "1Q_t_0079-0087_49"
    INDEX 01 01:17:54
  TRACK 50 AUDIO
    TITLE "1Q_t_0079-0087_50"
    INDEX 01 01:21:73
  TRACK 51 AUDIO
    TITLE "1Q_t_0079-0087_51"
    INDEX 01 01:22:53
  TRACK 52 AUDIO
    TITLE "1Q_t_0079-0087_52"
    INDEX 01 01:24:05
  TRACK 53 AUDIO
    TITLE "1Q_t_0079-0087_53"
    INDEX 01 01:24:31
  TRACK 54 AUDIO
    TITLE "1Q_t_0079-0087_54"
    INDEX 01 01:27:19
  TRACK 55 AUDIO
    TITLE "1Q_t_0079-0087_55"
    INDEX 01 01:27:35
  TRACK 56 AUDIO
    TITLE "1Q_t_0079-0087_56"
    INDEX 01 01:32:36
